<?xml version="1.0" standalone="no"?>
<!DOCTYPE svg PUBLIC "-//W3C//DTD SVG 20010904//EN"
 "http://www.w3.org/TR/2001/REC-SVG-20010904/DTD/svg10.dtd">
<svg version="1.0" xmlns="http://www.w3.org/2000/svg"
 width="1200.000000pt" height="1200.000000pt" viewBox="0 0 1200.000000 1200.000000"
 preserveAspectRatio="xMidYMid meet">

<g transform="translate(0.000000,1200.000000) scale(0.100000,-0.100000)"
fill="#000000" stroke="none">
<path d="M3660 6831 l0 -171 80 0 80 0 0 -450 0 -450 -80 0 -80 0 0 -171 0
-170 548 3 c522 4 550 5 624 25 103 29 171 65 235 125 63 61 98 130 114 227
14 84 2 177 -32 243 -29 56 -95 125 -151 157 l-48 28 49 32 c62 39 97 80 130
151 23 48 26 68 26 160 0 94 -3 111 -29 167 -36 80 -104 144 -199 188 -138 65
-164 68 -744 72 l-523 5 0 -171z m903 -184 c101 -43 105 -211 5 -263 -22 -12
-66 -19 -135 -22 l-103 -5 0 158 0 158 98 -5 c54 -3 114 -13 135 -21z m27
-583 c58 -34 75 -67 75 -144 0 -78 -17 -110 -76 -145 -27 -16 -57 -21 -146
-24 l-113 -3 0 172 0 173 113 -5 c89 -3 121 -8 147 -24z"/>
<path d="M5605 6933 c-170 -17 -311 -32 -312 -32 -2 -1 -3 -62 -3 -136 l0
-135 75 0 75 0 0 -455 0 -455 -75 0 -75 0 0 -150 0 -150 395 0 396 0 -3 148
-3 147 -77 3 -78 3 -2 622 -3 623 -310 -33z"/>
<path d="M9095 6934 c-170 -18 -311 -33 -313 -33 -1 -1 -1 -61 0 -133 l3 -133
78 -3 77 -3 0 -454 0 -454 -77 -3 -78 -3 -3 -147 -3 -148 396 0 395 0 0 150 0
150 -75 0 -75 0 0 619 c0 341 -3 622 -7 624 -5 2 -147 -11 -318 -29z"/>
<path d="M2029 6562 c-123 -120 -204 -191 -222 -196 -46 -11 -77 -52 -77 -100
0 -126 171 -158 211 -39 18 56 324 373 359 373 18 0 46 21 100 75 l74 75 -126
0 -126 0 -193 -188z"/>
<path d="M2441 6635 l-116 -115 148 -147 147 -148 115 116 c93 94 115 121 115
144 0 24 -22 51 -118 147 -96 96 -123 118 -147 118 -23 0 -50 -22 -144 -115z"/>
<path d="M6600 6485 c-182 -36 -326 -143 -390 -288 -29 -65 -50 -169 -50 -247
0 -266 149 -457 410 -527 101 -26 301 -24 407 6 250 70 387 254 387 521 0 170
-49 294 -155 395 -135 129 -382 186 -609 140z m215 -287 c15 -7 36 -33 52 -66
24 -50 27 -66 27 -171 0 -137 -14 -193 -59 -238 -51 -51 -126 -42 -164 21 -45
73 -54 289 -16 384 30 73 92 101 160 70z"/>
<path d="M7875 6490 c-199 -32 -336 -114 -392 -237 -22 -48 -25 -65 -21 -138
4 -71 9 -91 34 -131 36 -59 122 -127 198 -158 l56 -23 -75 -37 c-94 -47 -127
-90 -133 -175 -3 -45 1 -67 17 -99 11 -22 25 -43 31 -47 17 -10 11 -23 -14
-29 -13 -3 -42 -26 -66 -52 -41 -45 -42 -47 -38 -105 5 -71 38 -118 117 -166
92 -56 192 -76 395 -81 262 -6 413 19 550 91 127 68 189 161 189 287 1 134
-59 223 -182 272 -51 20 -79 22 -313 27 -270 6 -296 11 -272 49 9 14 38 19
153 29 218 18 341 62 436 157 60 60 85 121 85 208 l0 58 60 0 60 0 0 155 c0
120 -3 155 -13 155 -7 0 -99 -9 -205 -20 -178 -18 -197 -18 -250 -4 -68 19
-319 27 -407 14z m243 -214 c52 -27 75 -62 80 -120 6 -69 -1 -97 -34 -135 -52
-62 -150 -63 -209 -1 -26 27 -30 40 -33 100 -4 57 -1 75 17 103 37 60 119 84
179 53z m130 -938 c20 -17 14 -63 -12 -87 -13 -12 -45 -29 -71 -37 -57 -17
-233 -19 -290 -3 -56 16 -105 68 -105 111 l0 35 233 -5 c132 -2 237 -9 245
-14z"/>
<path d="M9590 6335 l0 -145 48 0 47 0 239 -400 238 -400 -19 -33 -19 -32
-122 -3 -122 -3 0 -144 0 -145 340 0 340 0 0 145 0 145 -70 0 c-50 0 -70 4
-69 13 0 6 95 201 212 432 l212 420 48 3 47 3 0 145 0 144 -255 0 -255 0 0
-145 0 -145 60 0 c33 0 60 -2 60 -5 0 -10 -165 -335 -170 -335 -6 0 -174 306
-178 326 -3 11 9 14 52 14 l56 0 0 145 0 145 -360 0 -360 0 0 -145z"/>
<path d="M1835 6030 l-410 -410 -37 -183 c-20 -100 -35 -183 -35 -183 1 -1 84
14 184 34 l182 36 411 411 410 410 -148 148 -147 147 -410 -410z m-110 -410
l39 -40 -59 -60 c-51 -50 -68 -61 -110 -69 -27 -5 -51 -9 -52 -8 -1 1 3 25 9
52 8 41 21 61 66 108 31 31 59 57 62 57 3 0 24 -18 45 -40z"/>
</g>
</svg>
